  0%|          | 0/11 [00:00<?, ?it/s]Traceback (most recent call last):
  File "get_spectrogram.py", line 52, in <module>
    fire.Fire({'run': e.iter_get_spectrogram})
  File "/usr/local/lib/python2.7/dist-packages/fire/core.py", line 127, in Fire
    component_trace = _Fire(component, args, context, name)
  File "/usr/local/lib/python2.7/dist-packages/fire/core.py", line 366, in _Fire
    component, remaining_args)
  File "/usr/local/lib/python2.7/dist-packages/fire/core.py", line 542, in _CallCallable
    result = fn(*varargs, **kwargs)
  File "get_spectrogram.py", line 47, in iter_get_spectrogram
    spec = self.get_spectrogram(fn)
  File "get_spectrogram.py", line 24, in get_spectrogram
    X = self.ap.mel(self.ap.forward(self.ap.load(fn)), logamp=True)
  File "preprocessing/audio.py", line 26, in load
    return librosa.load(fn, sr=self.sr, mono=self.mono)[0]
  File "/usr/local/lib/python2.7/dist-packages/librosa/core/audio.py", line 126, in load
    for frame in input_file:
  File "/usr/local/lib/python2.7/dist-packages/audioread/ffdec.py", line 181, in read_data
    ''.join(self.stderr_reader.queue.queue)
audioread.ffdec.ReadTimeoutError: ffmpeg output: Output #0, s16le, to 'pipe:':
  Metadata:
    genre           : Blues
    encoder         : Lavf56.40.101
    Stream #0:0: Audio: pcm_s16le, 44100 Hz, stereo, s16, 1411 kb/s
    Metadata:
      encoder         : Lavc56.60.100 pcm_s16le
Stream mapping:
  Stream #0:0 -> #0:0 (mp3 (native) -> pcm_s16le (native))
Press [q] to stop, [?] for help
size=     333kB time=00:00:01.93 bitrate=1411.2kbits/s    size=     338kB time=00:00:01.95 bitrate=1411.2kbits/s    size=     342kB time=00:00:01.98 bitrate=1411.2kbits/s    size=     346kB time=00:00:02.01 bitrate=1411.2kbits/s    size=     351kB time=00:00:02.03 bitrate=1411.2kbits/s    size=     356kB time=00:00:02.06 bitrate=1411.2kbits/s    size=     572kB time=00:00:03.31 bitrate=1411.2kbits/s    size=     576kB time=00:00:03.34 bitrate=1411.2kbits/s    size=     580kB time=00:00:03.36 bitrate=1411.2kbits/s    size=     585kB time=00:00:03.39 bitrate=1411.2kbits/s    size=     590kB time=00:00:03.42 bitrate=1411.2kbits/s    size=     594kB time=00:00:03.44
Exception TypeError